#!OML:ASF E:\motion texture\Top Level 1\Subject 1\Session 1\male.ASF
:FULLY-SPECIFIED
:DEGREES
488
root -27.4537 18.017 1.81778 467.484 -86.1135 -461.52
lowerback 3.46564 0.532249 4.26467
upperback -1.50923 0.962517 4.02241
thorax -3.5041 0.391435 1.70352
lowerneck -14.0003 -1.46315 -6.50146
upperneck -2.69086 -1.18743 2.55559
head 1.61409 -0.566705 1.89619
rclavicle 3.67752e-015 6.44062e-014
rhumerus -50.4845 -25.0632 -61.3813
rradius 16.4216
rwrist 29.448
rhand -1.37579 -18.9696
rfingers 7.12502
rthumb 24.272 -47.4531
lclavicle 3.67752e-015 6.44062e-014
lhumerus -74.7652 34.5031 37.9737
lradius 12.7417
lwrist -71.7427
lhand 15.0241 15.4829
lfingers 7.12502
lthumb 39.8744 40.7467
rfemur -26.9017 -11.6434 19.7776
rtibia 71.0894
rfoot 5.16406 -12.5889
rtoes 7.77311
lfemur -12.5671 -4.16321 -22.4469
ltibia 22.2763
lfoot -10.2628 1.88201
ltoes 1.7775
489
root -27.5674 18.0283 1.81892 458.618 -86.292 -452.734
lowerback 3.54465 0.526841 4.26827
upperback -1.53693 0.963501 4.05745
thorax -3.57823 0.390967 1.73751
lowerneck -13.8543 -1.42354 -6.39599
upperneck -2.62328 -1.15405 2.55678
head 1.60814 -0.549286 1.87931
rclavicle -7.95139e-016 -2.38542e-015
rhumerus -49.5297 -24.2941 -61.846
rradius 16.5246
rwrist 29.0311
rhand -2.61033 -19.3908
rfingers 7.12502
rthumb 23.0879 -48.0276
lclavicle -7.95139e-016 -2.38542e-015
lhumerus -73.766 35.1621 37.4103
lradius 12.6731
lwrist -73.445
lhand 11.9985 15.8032
lfingers 7.12502
lthumb 37.0193 41.8627
rfemur -27.9109 -11.7912 19.6337
rtibia 70.6801
rfoot 4.35863 -13.1749
rtoes 8.34129
lfemur -11.8366 -4.20958 -22.6515
ltibia 21.857
lfoot -10.2831 1.60999
ltoes 1.81854
490
root -27.6791 18.0385 1.82016 449.105 -86.3831 -443.293
lowerback 3.63095 0.519868 4.27615
upperback -1.57271 0.963645 4.07868
thorax -3.66461 0.389805 1.75487
lowerneck -13.6944 -1.37831 -6.26769
upperneck -2.56983 -1.11742 2.5497
head 1.59444 -0.53058 1.85555
rclavicle 1.2921e-015 2.70347e-014
rhumerus -48.5986 -23.6598 -62.1298
rradius 16.5856
rwrist 28.6923
rhand -3.79952 -19.8197
rfingers 7.12502
rthumb 21.9465 -48.5948
lclavicle 1.2921e-015 2.70347e-014
lhumerus -72.7062 35.9098 36.905
lradius 12.6124
lwrist -75.1445
lhand 8.93186 16.2135
lfingers 7.12502
lthumb 34.1126 42.9722
rfemur -28.8843 -11.9236 19.4723
rtibia 70.0967
rfoot 3.50217 -13.6853
rtoes 8.74944
lfemur -11.129 -4.22282 -22.8642
ltibia 21.4563
lfoot -10.305 1.3623
ltoes 1.83447
491
root -27.7903 18.0477 1.82181 439.514 -86.382 -433.773
lowerback 3.70226 0.516218 4.29006
upperback -1.60092 0.966985 4.08578
thorax -3.73428 0.390344 1.75401
lowerneck -13.5472 -1.33198 -6.12715
upperneck -2.51235 -1.08028 2.54961
head 1.58431 -0.511538 1.832
rclavicle 4.96962e-016 -1.51076e-014
rhumerus -47.6692 -23.1695 -62.2542
rradius 16.6016
rwrist 28.4283
rhand -4.94674 -20.2513
rfingers 7.12502
rthumb 20.8446 -49.1515
lclavicle 4.96962e-016 -1.51076e-014
lhumerus -71.6558 36.8053 36.3376
lradius 12.5507
lwrist -76.9508
lhand 5.78896 16.682
lfingers 7.12502
lthumb 31.1222 44.0601
rfemur -29.8047 -12.0379 19.2883
rtibia 69.334
rfoot 2.63659 -14.1291
rtoes 9.04339
lfemur -10.4227 -4.23499 -23.0858
ltibia 21.0583
lfoot -10.323 1.15296
ltoes 1.83102
492
root -27.9 18.0557 1.82333 430.057 -86.2863 -424.377
lowerback 3.77123 0.508265 4.30505
upperback -1.63935 0.965052 4.08047
thorax -3.81305 0.388049 1.74009
lowerneck -13.3881 -1.27773 -5.98912
upperneck -2.45525 -1.03292 2.5722
head 1.57191 -0.486725 1.81694
rclavicle 5.36719e-015 -3.26007e-014
rhumerus -46.7632 -22.8213 -62.2181
rradius 16.5745
rwrist 28.2579
rhand -6.03735 -20.6884
rfingers 7.12502
rthumb 19.7965 -49.7002
lclavicle 5.36719e-015 -3.26007e-014
lhumerus -70.5378 37.7614 35.8896
lradius 12.5094
lwrist -78.5995
lhand 2.6507 17.216
lfingers 7.12502
lthumb 28.1267 45.1266
rfemur -30.6797 -12.15 19.0868
rtibia 68.4016
rfoot 1.7588 -14.5377
rtoes 9.20728
lfemur -9.73812 -4.27502 -23.3104
ltibia 20.6769
lfoot -10.3468 0.964935
ltoes 1.82786
493
root -28.0092 18.0623 1.82473 421.261 -86.0964 -415.631
lowerback 3.81796 0.500014 4.32647
upperback -1.67476 0.961173 4.0655
thorax -3.87582 0.384802 1.7128
lowerneck -13.2443 -1.21699 -5.87252
upperneck -2.39734 -0.973605 2.63461
head 1.56286 -0.4548 1.81964
rclavicle -3.8763e-015 -3.10104e-014
rhumerus -45.849 -22.5986 -62.0655
rradius 16.5247
rwrist 28.1006
rhand -7.00188 -21.1392
rfingers 7.12502
rthumb 18.869 -50.244
lclavicle -3.8763e-015 -3.10104e-014
lhumerus -69.3342 38.7887 35.5822
lradius 12.4888
lwrist -80.062
lhand -0.486179 17.7893
lfingers 7.12502
lthumb 25.1246 46.1561
rfemur -31.4997 -12.2571 18.8738
rtibia 67.293
rfoot 0.903495 -14.9305
rtoes 9.27742
lfemur -9.07779 -4.35997 -23.5284
ltibia 20.314
lfoot -10.382 0.790926
ltoes 1.80202
494
root -28.1176 18.0677 1.82587 413.357 -85.8197 -407.764
lowerback 3.84878 0.491708 4.35172
upperback -1.71326 0.956355 4.0424
thorax -3.9326 0.380995 1.67507
lowerneck -13.125 -1.15461 -5.7574
upperneck -2.32381 -0.910607 2.71115
head 1.56338 -0.420729 1.82765
rclavicle 8.15017e-015 8.74653e-015
rhumerus -44.9448 -22.4894 -61.8065
rradius 16.4618
rwrist 27.9688
rhand -7.87952 -21.6051
rfingers 7.12502
rthumb 18.0248 -50.7899
lclavicle 8.15017e-015 8.74653e-015
lhumerus -67.9908 39.8368 35.5174
lradius 12.4979
lwrist -81.2155
lhand -3.42519 18.4442
lfingers 7.12502
lthumb 22.3058 47.1767
rfemur -32.2558 -12.3664 18.6515
rtibia 66.0046
rfoot 0.0640056 -15.3229
rtoes 9.23397
lfemur -8.44402 -4.49766 -23.7364
ltibia 19.9737
lfoot -10.4393 0.617588
ltoes 1.74588
